# xmcd
#
# Track frame offsets:
#	150
#	19717
#	41595
#	76087
#	111395
#	140155
#	160685
#	206617
#
# Disc length: 3013 seconds
#
# Revision: 1
# Processed by: cddbd v1.5.1PL2 Copyright (c) Steve Scherf et al.
# Submitted via: dBpowerAMP V4.0
#
DISCID=640bc308
DTITLE=Various Artist - From Time to Time Free
DYEAR=1988
DGENRE=Jazz
TTITLE0=India - India
TTITLE1=Spy vs. Spy - Spy vs. Spy
TTITLE2=Joachim Kühn Trio - From Time to Time free
TTITLE3=Para - Para
TTITLE4=Sometimes I Don't Remember - Sometimes I don't remember
TTITLE5=Cannonball - Cannonball
TTITLE6=Trio Music - Trio music
TTITLE7=Expression - Expression
EXTD=
EXTT0=
EXTT1=
EXTT2=
EXTT3=
EXTT4=
EXTT5=
EXTT6=
EXTT7=
PLAYORDER=
